<svg id='Village_24' width='24' height='24' viewBox='0 0 24 24' xmlns='http://www.w3.org/2000/svg' xmlns:xlink='http://www.w3.org/1999/xlink'><rect width='24' height='24' stroke='none' fill='#000000' opacity='0'/>


<g transform="matrix(0.63 0 0 0.63 12 12)" >
<g style="" >
<g transform="matrix(1 0 0 1 0 12)" >
<rect style="stroke: none; stroke-width: 1; stroke-dasharray: none; stroke-linecap: butt; stroke-dashoffset: 0; stroke-linejoin: miter; stroke-miterlimit: 4; fill: rgb(15,81,140); fill-rule: nonzero; opacity: 1;" x="-8" y="-2" rx="0" ry="0" width="16" height="4" />
</g>
<g transform="matrix(1 0 0 1 0 -9.5)" >
<polygon style="stroke: none; stroke-width: 1; stroke-dasharray: none; stroke-linecap: butt; stroke-dashoffset: 0; stroke-linejoin: miter; stroke-miterlimit: 4; fill: rgb(237,0,73); fill-rule: nonzero; opacity: 1;" points="0,-2.5 -7,2.5 7,2.5 " />
</g>
<g transform="matrix(1 0 0 1 -9.61 -9.5)" >
<polygon style="stroke: none; stroke-width: 1; stroke-dasharray: none; stroke-linecap: butt; stroke-dashoffset: 0; stroke-linejoin: miter; stroke-miterlimit: 4; fill: rgb(237,0,73); fill-rule: nonzero; opacity: 1;" points="4.39,-1.23 2.61,-2.5 -4.39,2.5 -0.83,2.5 " />
</g>
<g transform="matrix(1 0 0 1 10.36 -9.5)" >
<polygon style="stroke: none; stroke-width: 1; stroke-dasharray: none; stroke-linecap: butt; stroke-dashoffset: 0; stroke-linejoin: miter; stroke-miterlimit: 4; fill: rgb(237,0,73); fill-rule: nonzero; opacity: 1;" points="0.08,2.5 4.64,2.5 -2.36,-2.5 -4.64,-0.87 " />
</g>
<g transform="matrix(1 0 0 1 0 -0.62)" >
<polygon style="stroke: none; stroke-width: 1; stroke-dasharray: none; stroke-linecap: butt; stroke-dashoffset: 0; stroke-linejoin: miter; stroke-miterlimit: 4; fill: rgb(15,81,140); fill-rule: nonzero; opacity: 1;" points="2,-4.38 2,-0.38 -2,-0.38 -2,-4.38 -5,-4.38 -5,4.38 5,2.95 5,-4.38 " />
</g>
<g transform="matrix(1 0 0 1 10.5 4.5)" >
<polygon style="stroke: none; stroke-width: 1; stroke-dasharray: none; stroke-linecap: butt; stroke-dashoffset: 0; stroke-linejoin: miter; stroke-miterlimit: 4; fill: rgb(15,81,140); fill-rule: nonzero; opacity: 1;" points="1.5,-7.21 1.5,-9.5 -3.5,-9.5 -3.5,-2.46 -0.5,-2.89 -0.5,2.5 -0.5,5.5 -0.5,9.5 3.5,9.5 3.5,-7.5 " />
</g>
<g transform="matrix(1 0 0 1 -10.5 4.5)" >
<polygon style="stroke: none; stroke-width: 1; stroke-dasharray: none; stroke-linecap: butt; stroke-dashoffset: 0; stroke-linejoin: miter; stroke-miterlimit: 4; fill: rgb(15,81,140); fill-rule: nonzero; opacity: 1;" points="-1.5,-9.5 -1.5,-3.79 -3.5,-3.5 -3.5,9.5 0.5,9.5 0.5,5.5 0.5,2.5 0.5,-0.03 3.5,-0.46 3.5,-9.5 " />
</g>
</g>
</g>
</svg>
